# xmcd CD database file
#
# Track frame offsets:
#	182
#	38582
#	59132
#	82967
#	108917
#	149742
#	176955
#	218645
#	252652
#	294940
#
# Disc length: 4023 seconds
#
# Revision: 0
# Processed by: cddbd v1.5.2PL0 Copyright (c) Steve Scherf et al.
# Submitted via: CDex 1.51
#
DISCID=990fb50a
DTITLE=Jaeanfrancois Prins - N.Y. Stories
DYEAR=1991
DGENRE=Jazz
TTITLE0=N.Y. Stories
TTITLE1=Three For Two
TTITLE2=Nat *Queen* Loriers
TTITLE3=Fee. Fi. Fo. Fum.
TTITLE4=Elm
TTITLE5=Think Of One
TTITLE6=Nefertiti/Off Minor
TTITLE7=Cat's Eye
TTITLE8=You Don't Know What Love Is
TTITLE9=Evidence
EXTD=YEAR: 1991
EXTT0=
EXTT1=
EXTT2=
EXTT3=
EXTT4=
EXTT5=
EXTT6=
EXTT7=
EXTT8=
EXTT9=
PLAYORDER=
